<?xml version="1.0" encoding="UTF-8" standalone="no"?>
<svg
   xmlns:dc="http://purl.org/dc/elements/1.1/"
   xmlns:cc="http://creativecommons.org/ns#"
   xmlns:rdf="http://www.w3.org/1999/02/22-rdf-syntax-ns#"
   xmlns:svg="http://www.w3.org/2000/svg"
   xmlns="http://www.w3.org/2000/svg"
   id="svg4525"
   version="1.1"
   viewBox="0 0 68.730362 4.5599399"
   height="4.5599399mm"
   width="68.730362mm">
  <defs
     id="defs4519" />
  <metadata
     id="metadata4522">
    <rdf:RDF>
      <cc:Work
         rdf:about="">
        <dc:format>image/svg+xml</dc:format>
        <dc:type
           rdf:resource="http://purl.org/dc/dcmitype/StillImage" />
        <dc:title></dc:title>
      </cc:Work>
    </rdf:RDF>
  </metadata>
  <g
     transform="translate(-71.468276,-146.55334)"
     id="layer1">
    <path
       style="fill:#3a383f;fill-opacity:1;fill-rule:nonzero;stroke:none;stroke-width:0.35277778"
       d="m 107.63475,148.83816 -1.66191,-2.22002 c -0.0289,-0.04 -0.0758,-0.0634 -0.1254,-0.0648 -0.001,0 -0.001,0 -0.001,0 -0.0496,0 -0.0951,0.0234 -0.12541,0.0634 l -1.6881,2.22002 c -0.0441,0.0592 -0.0427,0.14056 0.004,0.19843 l 1.6881,2.02159 c 0.0303,0.0358 0.0744,0.0565 0.12127,0.0565 0,0 0,0 0.001,0 0.0469,0 0.091,-0.0207 0.12127,-0.0579 l 1.66191,-2.02158 c 0.0469,-0.0565 0.0482,-0.13781 0.004,-0.19568"
       id="path71" />
    <path
       style="fill:#3a383f;fill-opacity:1;fill-rule:nonzero;stroke:none;stroke-width:0.35277778"
       d="m 73.748792,148.98285 -1.043174,-1.3932 c -0.01929,-0.0248 -0.04685,-0.04 -0.07855,-0.04 -0.03169,0 -0.06063,0.0138 -0.07993,0.0386 l -1.059712,1.3932 c -0.02618,0.0372 -0.02618,0.0882 0.0041,0.12402 l 1.058334,1.26918 c 0.01929,0.0234 0.04685,0.0358 0.07717,0.0358 0.02894,0 0.05788,-0.0124 0.07579,-0.0358 l 1.043175,-1.26918 c 0.02894,-0.0358 0.03032,-0.0868 0.0027,-0.12264"
       id="path73" />
    <path
       style="fill:#3a383f;fill-opacity:1;fill-rule:nonzero;stroke:none;stroke-width:0.35277778"
       d="m 140.17851,148.88501 -1.04318,-1.3932 c -0.0179,-0.0248 -0.0469,-0.04 -0.0786,-0.04 -0.0317,0 -0.0606,0.0138 -0.0799,0.04 l -1.05833,1.3932 c -0.0289,0.0372 -0.0275,0.0882 0.003,0.12402 l 1.05833,1.26918 c 0.0193,0.022 0.0469,0.0358 0.0772,0.0358 0.0303,0 0.0579,-0.0138 0.0772,-0.0372 l 1.0418,-1.26918 c 0.0289,-0.0345 0.0303,-0.0854 0.003,-0.12264"
       id="path75" />
    <path
       style="fill:#3a383f;fill-opacity:1;fill-rule:nonzero;stroke:none;stroke-width:0.35277778"
       d="m 100.73216,148.41648 c -0.11851,-0.72899 -0.870921,-1.09003 -1.539269,-0.95912 -0.01378,0.003 -0.02617,0.01 -0.03996,0.0138 -0.139181,0.022 -0.275608,0.0606 -0.399632,0.12815 -0.529166,0.29215 -0.653187,1.01562 -0.443727,1.53927 0.06477,0.16123 0.144693,0.31006 0.239776,0.44235 0.0055,0.0124 0.0096,0.0262 0.01516,0.0386 0.124026,0.27974 0.341751,0.40376 0.587046,0.43408 0.184653,0.0703 0.38998,0.0992 0.621491,0.0661 0.745525,-0.10335 1.062465,-1.07211 0.959115,-1.70325"
       id="path77" />
    <path
       style="fill:#3a383f;fill-opacity:1;fill-rule:nonzero;stroke:none;stroke-width:0.35277778"
       d="m 113.01323,148.40821 c -0.15434,-0.46853 -0.66696,-0.90262 -1.16857,-0.93431 -0.31971,-0.113 -0.70418,-0.1006 -0.9412,0.17914 -0.23978,0.28112 -0.43959,0.63528 -0.47956,1.00597 -0.0248,0.15296 -0.0303,0.3073 -0.001,0.46027 0.0331,0.16812 0.11024,0.30041 0.20533,0.41479 0.1254,0.30041 0.38447,0.52365 0.75103,0.51676 0.0813,0 0.15572,-0.0193 0.23427,-0.0303 0.16261,0.01 0.33211,-0.008 0.50436,-0.0551 0.678,-0.18603 1.1231,-0.86403 0.89572,-1.55718"
       id="path79" />
    <path
       style="fill:#3a383f;fill-opacity:1;fill-rule:nonzero;stroke:none;stroke-width:0.35277778"
       d="m 93.982528,147.99066 c -1.023881,0 -1.023881,1.58888 0,1.58888 1.023885,0 1.023885,-1.58888 0,-1.58888"
       id="path81" />
    <path
       style="fill:#3a383f;fill-opacity:1;fill-rule:nonzero;stroke:none;stroke-width:0.35277778"
       d="m 117.41607,147.92727 c -0.50712,0 -0.93156,0.42306 -0.93156,0.93018 0,0.50712 0.42444,0.93155 0.93156,0.93155 0.50712,0 0.93017,-0.42443 0.93017,-0.93155 0,-0.50712 -0.42305,-0.93018 -0.93017,-0.93018"
       id="path83" />
    <path
       style="fill:#3a383f;fill-opacity:1;fill-rule:nonzero;stroke:none;stroke-width:0.35277778"
       d="m 75.294951,148.87123 c 0,0 0.242535,-0.0275 0.665593,-0.0469 0.21084,-0.0124 0.467155,-0.0207 0.762055,-0.0262 0.294901,-0.011 0.628386,-0.006 0.99081,0.003 0.362424,0.0124 0.755165,0.0331 1.171332,0.0317 0.208084,-0.003 0.420302,0 0.63941,-0.0289 0.21773,-0.0289 0.440972,-0.073 0.66697,-0.0992 0.453375,-0.0606 0.921908,0.0386 1.39871,0.0345 0.475423,0.0138 0.959114,0.007 1.442806,0.0455 0.483691,0.0386 0.967382,0.0827 1.442806,-0.0331 0.476801,-0.0634 0.945334,0.01 1.398708,0.0152 0.453375,0.0207 0.891591,0.0372 1.307759,0.0331 0.414789,-0.003 0.80753,-0.0965 1.171332,-0.0868 1.451075,0.0207 2.417079,0.15847 2.417079,0.15847 0.06063,0.008 0.103353,0.0634 0.09371,0.12402 -0.0069,0.0496 -0.04548,0.0868 -0.09371,0.0937 0,0 -0.966004,0.1378 -2.417079,0.1571 -0.363802,0.011 -0.756543,-0.0827 -1.171332,-0.0854 -0.416168,-0.004 -0.854384,0.0124 -1.307759,0.0331 -0.453374,0.006 -0.921907,0.0772 -1.398708,0.0152 -0.475424,-0.11575 -0.959115,-0.0717 -1.442806,-0.0331 -0.483692,0.0386 -0.967383,0.0317 -1.442806,0.0455 -0.476802,-0.004 -0.945335,0.0951 -1.39871,0.0345 -0.225998,-0.0262 -0.44924,-0.0703 -0.66697,-0.10059 -0.219108,-0.0275 -0.431326,-0.0248 -0.63941,-0.0289 -0.416167,0 -0.808908,0.0207 -1.171332,0.0317 -0.362424,0.008 -0.695909,0.0138 -0.99081,0.004 -0.2949,-0.006 -0.551215,-0.0138 -0.762055,-0.0262 -0.423058,-0.0193 -0.665593,-0.0469 -0.665593,-0.0469 -0.06063,-0.007 -0.103352,-0.0606 -0.09646,-0.12127 0.0055,-0.0524 0.04685,-0.0909 0.09646,-0.0965"
       id="path85" />
    <path
       style="fill:#3a383f;fill-opacity:1;fill-rule:nonzero;stroke:none;stroke-width:0.35277778"
       d="m 120.55386,148.87123 c 0,0 0.24253,-0.0275 0.66559,-0.0469 0.21222,-0.0124 0.46854,-0.0207 0.76344,-0.0262 0.2949,-0.011 0.62701,-0.006 0.98943,0.003 0.36242,0.0124 0.75654,0.0331 1.17133,0.0317 0.20809,-0.003 0.42168,0 0.63941,-0.0289 0.21773,-0.0289 0.44097,-0.073 0.66835,-0.0992 0.45337,-0.0606 0.92191,0.0386 1.39733,0.0345 0.4768,0.0138 0.96049,0.007 1.44418,0.0455 0.4837,0.0386 0.96739,0.0827 1.44281,-0.0331 0.4768,-0.0634 0.94533,0.01 1.39871,0.0152 0.45338,0.0207 0.89159,0.0372 1.30638,0.0331 0.41617,-0.003 0.80891,-0.0965 1.17133,-0.0868 1.45108,0.0207 2.41846,0.15847 2.41846,0.15847 0.0606,0.008 0.10197,0.0634 0.0937,0.12402 -0.007,0.0496 -0.0469,0.0868 -0.0937,0.0937 0,0 -0.96738,0.1378 -2.41846,0.1571 -0.36242,0.011 -0.75516,-0.0827 -1.17133,-0.0854 -0.41479,-0.004 -0.853,0.0124 -1.30638,0.0331 -0.45338,0.006 -0.92191,0.0772 -1.39871,0.0152 -0.47542,-0.11575 -0.95911,-0.0717 -1.44281,-0.0331 -0.48369,0.0386 -0.96738,0.0317 -1.44418,0.0455 -0.47542,-0.004 -0.94396,0.0951 -1.39733,0.0345 -0.22738,-0.0262 -0.45062,-0.0703 -0.66835,-0.10059 -0.21773,-0.0276 -0.43132,-0.0248 -0.63941,-0.0289 -0.41479,0 -0.80891,0.0207 -1.17133,0.0317 -0.36242,0.008 -0.69453,0.0138 -0.98943,0.004 -0.2949,-0.006 -0.55122,-0.0138 -0.76344,-0.0262 -0.42306,-0.0193 -0.66559,-0.0469 -0.66559,-0.0469 -0.0593,-0.007 -0.10335,-0.0606 -0.0965,-0.12127 0.005,-0.0524 0.0468,-0.0909 0.0965,-0.0965"
       id="path87" />
  </g>
</svg>
